<?xml version="1.0" encoding="UTF-8"?><svg id="GRAFISMO" xmlns="http://www.w3.org/2000/svg" viewBox="0 0 138 72"><defs><style>.cls-1{fill:#d11a6f;stroke-width:0px;}</style></defs><path class="cls-1" d="M74.22,22.12h.04s-.04,0-.04,0ZM43.84,21.92c-5.49.49-9.37,3.04-12.38,7.29-1.13,1.61.62,2.89,2.11,2.02,2.36-1.37,4.51-3.42,8-3.65,4.25-.28,6.66,1.76,6.35,4.61-.09.9-.58,1.06-1.32.93-3.34-.41-15.07-1.63-17.1,6.81-.16.65-.15,1.04-.12,1.7.16,4.66,4.9,7.17,9.54,7.44.65.04,1.44.04,2.36,0,1.42-.07,2.68-.24,3.61-.47.17-.06.33-.1.46-.13,1.34-.37,2.58-.89,3.71-1.55.7-.38,1.55-.83,2.37-.41.42.22.58.44.87.83h0c1.65,2.03,3.74,1.45,3.45-1.56-.31-3.22-.41-3.54.7-9.16.18-.73.31-1.48.39-2.23.83-6.91-4.39-13.25-13-12.48ZM44.94,42.25c-1.96,1-3.93.54-4.4-1.03-.48-1.57.73-3.65,2.69-4.65,1.96-1,3.93-.54,4.41,1.03.46,1.57-.74,3.65-2.7,4.65ZM26.34,43.71c-2.18.49-4.39,1.24-6.65.73-1.1-.25-1.77-.58-2.17-1.5-.2-.47-.19-1.48.28-2.14,1.31-1.8,2.73-3.39,3.97-4.55,3.97-3.7,10-8.5,7.77-11.84-.45-.68-1.24-1.26-2.44-1.7-5.33-1.75-16.68-1.53-22.21,2.74-1.84,1.42-.55,3.14,1.39,2.6,2.74-.76,8.7-2.27,10.89-1.28,2.75,1.24-1.69,4.09-6.28,7.51-3.04,2.27-7.5,5.87-8.68,7.56-2.73,3.92-1.88,8.17,12.37,7.45,5.35-.27,9.27-1.18,12.95-3.3,1.78-1.02.77-2.73-1.22-2.27ZM85.05,24.66c-2.65-1.91-5.84-2.76-9.16-2.51-.2.02-.41.04-.61.06-.26.01-.44,0-.64-.08-.45-.17-.55-.36-.7-.99-.18-1.13-.03-2.03.24-2.21,1.69-1.21,2.64-3.15,2.19-4.67-.52-1.74-2.7-2.25-4.88-1.14-2.16,1.11-3.5,3.41-2.97,5.15.41,1.38,1.87,1.99,3.54,1.62.06.18.17.48.12,1.15-.09.86-.17,1.09-.57,1.64-.45.62-1.11.87-1.62,1.12-1.84.91-3.61,2.19-5.23,3.85-3.03,3.11-4.71,6.27-5.83,10.99-1.63,6.82-.99,13.44,2.38,19.33,1.35,2.34,4.1,1.77,3.7-.51-.23-1.35-.92-4.51-.76-7.41.11-2.03.51-3.94.84-5.15.09-.23.21-.36.43-.45.24-.11.43-.09.68.02,5.8,3.35,13.88,2.04,18.83-3.3,5.25-5.68,5.77-12.35.02-16.5ZM74.59,41.34c-3.33,1.69-6.68.91-7.48-1.75-.81-2.67,1.25-6.21,4.57-7.9,3.33-1.7,6.68-.92,7.48,1.75.8,2.67-1.24,6.21-4.58,7.91ZM64.13,19.41c2.17-1.11,3.5-3.41,2.98-5.15-.52-1.73-2.71-2.25-4.87-1.14-2.17,1.1-3.5,3.41-2.98,5.14.52,1.74,2.7,2.25,4.87,1.14ZM52.99,13.13c-2.17,1.1-3.5,3.41-2.98,5.14.52,1.74,2.7,2.25,4.87,1.14,2.17-1.11,3.5-3.41,2.98-5.15-.52-1.73-2.71-2.25-4.87-1.14Z"/><path class="cls-1" d="M100.31,27l-3.47,1.7c-.16.09-.3.13-.42.14-.24.02-.37-.11-.39-.4l-.53-6c-.03-.33.12-.58.44-.75l5.55-2.95c.14-.06.26-.11.36-.16.1-.04.24-.07.41-.09l4.99-.44c.19-.02.36.04.52.17.16.13.24.29.26.48l2.18,24.97c.02.19-.04.36-.17.52-.13.15-.29.24-.48.26l-6.96.61c-.19.02-.36-.04-.52-.17-.16-.13-.24-.29-.26-.48l-1.52-17.41ZM111.05,32.94l-.16-14.48c0-.19.07-.36.19-.52.12-.15.27-.24.46-.25l15.59-1.36c.19-.02.36.04.52.17.15.13.24.29.26.48l.46,5.22c.02.19-.04.36-.17.52s-.29.24-.48.26l-9.66.85v2.9s1.89-.16,1.89-.16c1.89-.17,3.47-.09,4.73.23,1.26.32,2.26.81,3.01,1.47.75.66,1.3,1.47,1.64,2.43.35.96.57,2.01.67,3.14l.04.43c.13,1.54-.01,2.88-.44,4.03-.42,1.15-1.07,2.11-1.95,2.89-.87.78-1.94,1.39-3.2,1.84-1.26.44-2.66.73-4.2.87-1.33.12-2.63.11-3.92-.01-1.29-.13-2.48-.34-3.58-.65-.2-.05-.38-.13-.54-.22-.16-.09-.25-.23-.27-.42l-.37-4.26c-.02-.19.03-.36.15-.51.12-.15.27-.24.46-.26h.07c.26,0,.67,0,1.24,0,.56,0,1.14,0,1.73-.03.59-.02,1.14-.03,1.62-.05.49-.02.8-.03.94-.05.85-.07,1.54-.17,2.05-.29.51-.12.89-.27,1.14-.46.25-.19.4-.42.46-.68.06-.27.07-.59.04-.97l-.04-.43c-.02-.28-.08-.53-.15-.74-.08-.21-.21-.39-.4-.54-.19-.15-.46-.25-.8-.31-.34-.05-.78-.06-1.33,0l-6.89.6c-.19.02-.37-.03-.53-.15-.17-.12-.26-.27-.27-.46v-.04ZM114.5,28.15s.04,0,.04,0c0,0,0,0,0,0,0,0,0,0,0,0,0,0-.02,0-.03,0ZM106.58,55.39v.06c.02.12-.04.19-.16.2l-2.52.22c-.06,0-.12-.01-.17-.06-.05-.04-.08-.1-.11-.16l-.34-1.34-1.84.16-.1,1.37c-.01.07-.04.13-.08.18-.04.05-.09.08-.16.09l-2.52.22c-.12.01-.19-.04-.2-.17v-.06s.79-7.43.79-7.43c.04-.31.12-.58.25-.79.13-.21.3-.39.51-.53.21-.14.46-.24.76-.32.29-.07.63-.13,1-.16.37-.03.71-.04,1.01-.02.3.02.57.08.81.18.24.1.44.24.6.43.16.19.29.43.37.74l2.08,7.18ZM103.48,50.26l-1.33-.92c-.16-.11-.31-.09-.44.04l-1.15,1.14c-.22.21-.15.46.16.44h.15s.1,1.09.1,1.09c.01.15.14.26.29.25l1.83-.16c.15-.01.26-.14.25-.29l-.1-1.11h.15c.3-.04.33-.3.08-.47ZM129.04,48.45l-1.8-.76c-.21-.09-.34-.15-.4-.2-.05-.04-.08-.09-.09-.15,0-.05,0-.09.04-.14.03-.04.1-.07.2-.08.23-.02.48-.04.75-.05.28-.01.55-.02.82-.02.27,0,.53,0,.77,0,.24,0,.45,0,.61,0h.02c.06,0,.11-.04.15-.09.04-.05.05-.11.05-.17l-.16-1.8c0-.06-.03-.11-.09-.15-.05-.04-.11-.06-.18-.07-.13-.03-.31-.05-.54-.07-.23-.02-.48-.04-.75-.04-.27,0-.56-.01-.85,0-.29,0-.57.02-.83.04-.63.06-1.15.17-1.55.34-.41.17-.72.38-.95.62-.23.24-.38.52-.45.83-.07.31-.1.63-.07.96.02.24.06.48.13.7.06.23.16.44.29.65.13.2.29.39.49.57.2.18.46.34.76.48l1.91.89c.14.07.24.13.29.18.05.05.08.11.08.17,0,.11-.01.21-.07.28-.05.07-.17.12-.35.13-.2.02-.43.03-.67.03-.25,0-.5,0-.74.01-.25,0-.48,0-.69,0-.21,0-.38-.01-.51-.02h-.02c-.06,0-.12.04-.16.09-.04.05-.06.11-.05.18l.16,1.8c0,.06.04.11.09.15.06.04.12.06.18.07.35.08.74.13,1.18.16.44.03.92.02,1.45-.02.64-.06,1.17-.19,1.6-.4.43-.21.78-.46,1.04-.76.26-.29.44-.62.54-.98.1-.36.13-.71.1-1.07-.05-.52-.21-.97-.48-1.35-.28-.37-.7-.68-1.28-.92ZM136.29,13.05l-.08-.07c-.83-.7-2.08-.59-2.78.24l-.56.66-.69-.58c-.84-.7-2.08-.59-2.78.24l-.07.08c-.7.84-.59,2.08.24,2.78l3.23,2.71c.14.12.33.18.53.16s.38-.11.5-.25l2.69-3.21c.7-.84.59-2.08-.24-2.78ZM123.24,50.18c.07.77.02,1.43-.15,1.97-.17.54-.42.98-.74,1.33-.33.35-.72.61-1.17.79-.45.18-.93.29-1.43.33-.5.04-.99.02-1.46-.08-.48-.1-.9-.29-1.29-.58-.38-.29-.7-.68-.96-1.18-.26-.5-.42-1.14-.49-1.91l-.09-1.05c-.07-.77-.02-1.43.15-1.97.17-.54.42-.98.74-1.33.33-.35.72-.61,1.17-.79.45-.18.93-.29,1.43-.33.5-.04.99-.02,1.46.08.48.1.9.29,1.29.58.38.29.7.68.96,1.18.26.5.42,1.14.49,1.91l.09,1.05ZM121.04,49.12l-1.03-.02-.5-.89c-.18-.33-.43-.31-.56.05l-.34.97-1.01.2c-.37.07-.43.32-.13.55l.82.62-.12,1.02c-.04.37.17.5.48.29l.84-.58.93.43c.34.16.53,0,.42-.37l-.3-.98.7-.75c.26-.28.16-.51-.22-.52ZM114.27,45.92c-.05-.04-.11-.06-.18-.06l-2.22.19c-.07,0-.12.03-.16.09-.04.05-.06.11-.06.18l.3,3.43c0,.06,0,.09,0,.1-.01,0-.03.01-.04.02-.02,0-.03,0-.05,0-.02,0-.04-.04-.08-.09l-2.32-3.16c-.06-.08-.12-.16-.2-.22-.08-.06-.17-.09-.29-.08l-1.98.17c-.11,0-.21.06-.28.15-.08.09-.11.19-.1.31l.73,8.32c0,.06.04.12.09.16.06.04.12.06.18.06l2.2-.19c.06,0,.12-.04.17-.09.05-.05.07-.11.06-.18l-.29-3.34c0-.07.01-.11.05-.11h.01s.03,0,.04,0c.01,0,.04.03.07.08l2.29,3.15c.05.07.1.13.17.17.07.05.15.07.24.06l2.07-.18c.11,0,.21-.06.29-.15.08-.09.11-.19.1-.31l-.73-8.32c0-.06-.03-.12-.09-.16Z"/></svg>